<?xml version="1.0" ?><!DOCTYPE svg  PUBLIC '-//W3C//DTD SVG 1.1//EN'  'http://www.w3.org/Graphics/SVG/1.1/DTD/svg11.dtd'><svg enable-background="new 0 0 32 32" height="32px" id="Слой_1" version="1.1" viewBox="0 0 32 32" width="32px" xml:space="preserve" xmlns="http://www.w3.org/2000/svg" xmlns:xlink="http://www.w3.org/1999/xlink"><path clip-rule="evenodd" d="M15.284,0.298  C15.273,0.309,8.29,7.245,8.29,7.245C8.087,7.447,7.993,7.714,7.999,7.98c0,0.008-0.005,0.015-0.005,0.023v23  c0,0.88,1.109,1.32,1.727,0.705l6.295-6.242l6.222,6.169c0.619,0.664,1.759,0.367,1.757-0.845V8.012  c0.018-0.278-0.07-0.561-0.284-0.774l-6.999-6.94C16.318-0.095,15.678-0.095,15.284,0.298z M21.988,8.368l0.006,20.187l-5.254-5.21  c-0.2-0.199-0.462-0.295-0.724-0.293c-0.262-0.003-0.524,0.094-0.724,0.293l-5.297,5.253V8.394l6.01-5.959L21.988,8.368z" fill="#121313" fill-rule="evenodd" id="Vintage_Luxury_Arrow_Up"/><g/><g/><g/><g/><g/><g/></svg>